<?xml version="1.0" encoding="utf-8"?>
<!-- Generator: Adobe Illustrator 21.1.0, SVG Export Plug-In . SVG Version: 6.00 Build 0)  -->
<svg version="1.1" id="Layer_1" xmlns="http://www.w3.org/2000/svg" xmlns:xlink="http://www.w3.org/1999/xlink" x="0px" y="0px"
	 viewBox="0 0 60 50" style="enable-background:new 0 0 60 50;" xml:space="preserve">
<style type="text/css">
	.st0{opacity:0.15;}
	.st1{fill:#FFFFFF;}
</style>
<g class="st0">
	<path d="M10.1,23.1H4.7l1.7-6.3h18.9l-1.7,6.3h-5.3L15,35.8H6.8L10.1,23.1z"/>
	<path d="M28.1,16.9h11.2v10.2h0.1L45,16.9h11.1l-5.1,18.9H43l2.7-10h-0.1l-6.3,10h-4.7l-0.7-10.4h-0.1L31,35.8h-7.8L28.1,16.9z"/>
</g>
<g>
	<path class="st1" d="M10.1,22.1H4.7l1.7-6.3h18.9l-1.7,6.3h-5.3L15,34.8H6.8L10.1,22.1z"/>
	<path class="st1" d="M28.1,15.9h11.2v10.2h0.1L45,15.9h11.1l-5.1,18.9H43l2.7-10h-0.1l-6.3,10h-4.7l-0.7-10.4h-0.1L31,34.8h-7.8
		L28.1,15.9z"/>
</g>
</svg>
